<svg width="32" height="32" viewBox="0 0 20 20" fill="none" xmlns="http://www.w3.org/2000/svg">
    <g clip-path="url(#clip0_1345_5397)">
        <path
            d="M4.66675 12C3.93341 12 3.34008 12.6 3.34008 13.3333C3.34008 14.0667 3.93341 14.6667 4.66675 14.6667C5.40008 14.6667 6.00008 14.0667 6.00008 13.3333C6.00008 12.6 5.40008 12 4.66675 12ZM0.666748 1.33334V2.66668H2.00008L4.40008 7.72668L3.50008 9.36001C3.39341 9.54668 3.33341 9.76668 3.33341 10C3.33341 10.7333 3.93341 11.3333 4.66675 11.3333H12.6667V10H4.94675C4.85341 10 4.78008 9.92668 4.78008 9.83334L4.80008 9.75334L5.40008 8.66668H10.3667C10.8667 8.66668 11.3067 8.39334 11.5334 7.98001L13.9201 3.65334C13.9734 3.56001 14.0001 3.44668 14.0001 3.33334C14.0001 2.96668 13.7001 2.66668 13.3334 2.66668H3.47341L2.84675 1.33334H0.666748ZM11.3334 12C10.6001 12 10.0067 12.6 10.0067 13.3333C10.0067 14.0667 10.6001 14.6667 11.3334 14.6667C12.0667 14.6667 12.6667 14.0667 12.6667 13.3333C12.6667 12.6 12.0667 12 11.3334 12Z"
            fill="#132322" />
    </g>
    <defs>
        <clipPath id="clip0_1345_5397">
            <rect width="32" height="32" fill="white" />
        </clipPath>
    </defs>
</svg>