<?xml version="1.0" encoding="UTF-8"?>
<svg width="91px" height="90px" viewBox="0 0 91 90" version="1.1" xmlns="http://www.w3.org/2000/svg" xmlns:xlink="http://www.w3.org/1999/xlink">
    <!-- Generator: Sketch 52.6 (67491) - http://www.bohemiancoding.com/sketch -->
    <title>HeaderBar_Bot@3x</title>
    <desc>Created with Sketch.</desc>
    <defs>
        <polygon id="path-1" points="0.000148673446 0.151585124 23.9788094 0.151585124 23.9788094 22 0.000148673446 22"></polygon>
        <polygon id="path-3" points="0.197359864 0.151585124 23.8838049 0.151585124 23.8838049 22 0.197359864 22"></polygon>
    </defs>
    <g id="HeaderBar_Bot" stroke="none" stroke-width="1" fill="none" fill-rule="evenodd">
        <g>
            <path d="M51.0050816,71.9647624 L51.0050816,69.6928452 C64.7943849,68.8636238 73.3261215,65.038448 77.8168542,62.2346338 C80.334025,60.6655378 81.8259687,57.8572414 81.8259687,54.8708491 L81.8259687,49.2838393 C83.5673645,49.2838393 85,47.8411435 85,46.0607828 L85,43.5118608 C85,41.7317989 83.5673645,40.2891031 81.8259687,40.2891031 L81.8259687,34.761857 C81.8259687,33.4584106 81.5395608,32.1770768 80.9819446,30.9988354 C78.6626665,26.0940282 70.7308666,14.4699879 47.5395759,13.8221493 L49.5584386,10.6854514 L50.6486364,8.91076819 L46.3176483,8.91076819 L48.6217268,5.64259007 C48.6431851,5.64348652 48.6643453,5.64587707 48.6858035,5.64587707 C50.2290086,5.64587707 51.4807393,4.38187474 51.4807393,2.82293854 C51.4807393,1.26370351 50.2290086,0 48.6858035,0 C47.1417044,0 45.8902717,1.26370351 45.8902717,2.82293854 C45.8902717,3.51291049 46.1358494,4.1440152 46.5426618,4.63437639 L41.9097683,11.208085 L46.5113686,11.208085 L44.8423944,13.8003356 C20.9155629,14.0190708 12.5328419,25.9565717 10.0684227,30.9725393 C9.47653288,32.1770768 9.17581949,33.4960617 9.17581949,34.8416415 L9.17581949,40.2891031 C7.43501979,40.2891031 6,41.7317989 6,43.5118608 L6,46.0607828 C6,47.8411435 7.43501979,49.2838393 9.17581949,49.2838393 L9.17581949,54.3323781 C9.17581949,57.5348162 10.9043999,60.4745928 13.6936731,62.0018542 C18.7450023,64.7662243 27.8388255,68.6918032 39.9952164,69.6456319 L39.9952164,71.9647624 C32.3545929,72.8053389 26.3972491,75.307944 21.9863887,78 L69.0148035,78 C64.603645,75.307944 58.6465992,72.8053389 51.0050816,71.9647624" id="Fill-1" fill="#D82E27"></path>
            <path d="M45.5007493,24 C25.9331791,24 17.7057962,30.7081424 15.7148121,34.1961396 C15.2409681,35.0269252 15,35.9364386 15,36.8634142 L15,50.2968651 C15,52.5050915 16.3849673,54.5301129 18.6172192,55.5822834 C23.2507603,57.7659443 33.5482511,61 45.5007493,61 C59.171494,61 68.7382879,57.9207362 72.790988,55.7435867 C74.8047502,54.6621151 76,52.7267724 76,50.6671226 L76,36.8089559 C76,35.9100973 75.7704209,35.0269252 75.3253492,34.2150816 C73.413489,30.7377393 65.3344634,24 45.5007493,24" id="Fill-3" fill="#5DC2E7"></path>
            <path d="M49,24.0613251 C47.9586931,24.0217132 46.8835226,24 45.7693484,24 C26.0292661,24 17.7293488,30.6504023 15.7211141,34.1083767 C15.2430925,34.9320114 15,35.8336962 15,36.7526929 L15,50.0705159 C15,52.0607951 16.1568061,53.898495 18.0589145,55 C18.0144685,46.9047894 23.1281803,34.1755703 49,24.0613251" id="Fill-5" fill="#2494D1"></path>
            <g id="Group-9" transform="translate(0.000000, 68.000000)">
                <mask id="mask-2" fill="white">
                    <use xlink:href="#path-1"></use>
                </mask>
                <g id="Clip-8"></g>
                <path d="M8.33244444,1.98569589 C3.48325926,3.56879178 -0.0260740741,8.21079178 0.000296296296,13.6589562 C0.0145185185,16.6081616 1.09037037,19.4564082 2.98903704,21.6549014 C3.43140741,22.1669288 4.2397037,22.0958055 4.61362963,21.5304356 L6.64474074,18.4597781 C6.81896296,18.1960795 6.79525926,17.8558329 6.61007407,17.6002712 C5.78340741,16.4589836 5.3357037,15.0889562 5.32859259,13.6324356 C5.30962963,9.60673699 8.76385185,6.37303836 12.8237037,6.8766274 C16.2388148,7.30005205 18.685037,10.1754219 18.6497778,13.674326 C18.6352593,15.0889562 18.202963,16.4234219 17.4088889,17.5436137 C17.2257778,17.802189 17.2047407,18.1439425 17.3825185,18.4070384 L19.4411852,21.4559973 C19.8204444,22.0180521 20.6296296,22.0813397 21.066963,21.5644904 C22.944,19.347011 23.9928889,16.4888192 23.9786667,13.5399151 C23.9528889,8.13032603 20.4482963,3.5516137 15.637037,1.98449041 C15.6613333,1.64454521 15.6906667,1.16416164 15.7182222,0.832654795 C15.7478519,0.471915068 15.4746667,0.16090137 15.1188148,0.151860274 L9.31674074,0.151860274 C8.84237037,0.140106849 8.43911111,0.506271233 8.40266667,0.987257534 C8.37777778,1.31695616 8.35437037,1.64966849 8.33244444,1.98569589" id="Fill-7" fill="#D82E27" mask="url(#mask-2)"></path>
            </g>
            <g id="Group-12" transform="translate(67.000000, 68.000000)">
                <mask id="mask-4" fill="white">
                    <use xlink:href="#path-3"></use>
                </mask>
                <g id="Clip-11"></g>
                <path d="M8.42803902,1.98569589 C3.63828293,3.56879178 0.171746341,8.21079178 0.197502439,13.6589562 C0.21155122,16.6081616 1.27457561,19.4564082 3.1500878,21.6549014 C3.58677073,22.1669288 4.38520976,22.0958055 4.75457561,21.5304356 L6.76091707,18.4597781 C6.93330732,18.1960795 6.90989268,17.8558329 6.72696585,17.6002712 C5.91038049,16.4589836 5.46813659,15.0889562 5.4611122,13.6324356 C5.4420878,9.60673699 8.85447805,6.37303836 12.8648195,6.8766274 C16.2379902,7.30005205 18.6546732,10.1754219 18.6195512,13.674326 C18.6055024,15.0889562 18.1781854,16.4234219 17.3940878,17.5436137 C17.2129171,17.802189 17.1924293,18.1439425 17.3677463,18.4070384 L19.4013073,21.4559973 C19.7762341,22.0180521 20.5755512,22.0813397 21.0072585,21.5644904 C22.8616976,19.347011 23.8975024,16.4888192 23.8837463,13.5399151 C23.8579902,8.13032603 20.3964293,3.5516137 15.6435512,1.98449041 C15.6675512,1.64454521 15.6965268,1.16416164 15.7237463,0.832654795 C15.7533073,0.471915068 15.4834537,0.16090137 15.1319415,0.151860274 L9.40033171,0.151860274 C8.93203902,0.140106849 8.53369756,0.506271233 8.49769756,0.987257534 C8.4731122,1.31695616 8.44969756,1.64966849 8.42803902,1.98569589" id="Fill-10" fill="#D82E27" mask="url(#mask-4)"></path>
            </g>
        </g>
    </g>
</svg>