<svg width="32" height="32" viewBox="0 0 16 16" fill="none" xmlns="http://www.w3.org/2000/svg">
    <path fill-rule="evenodd" clip-rule="evenodd"
        d="M2.22528 2.22552C2.55072 1.90009 3.07835 1.90009 3.40379 2.22552L7.99998 6.82172L12.5962 2.22552C12.9216 1.90009 13.4493 1.90009 13.7747 2.22552C14.1001 2.55096 14.1001 3.0786 13.7747 3.40403L9.1785 8.00023L13.7747 12.5964C14.1001 12.9219 14.1001 13.4495 13.7747 13.7749C13.4493 14.1004 12.9216 14.1004 12.5962 13.7749L7.99998 9.17874L3.40379 13.7749C3.07835 14.1004 2.55072 14.1004 2.22528 13.7749C1.89984 13.4495 1.89984 12.9219 2.22528 12.5964L6.82147 8.00023L2.22528 3.40403C1.89984 3.0786 1.89984 2.55096 2.22528 2.22552Z"
        fill="#132322" />
</svg>