<?xml version="1.0" encoding="UTF-8"?>
<svg width="181px" height="28px" viewBox="0 0 181 28" version="1.1" xmlns="http://www.w3.org/2000/svg" xmlns:xlink="http://www.w3.org/1999/xlink">
    <!-- Generator: Sketch 52.6 (67491) - http://www.bohemiancoding.com/sketch -->
    <title>SwagLabs logo@3x</title>
    <desc>Created with Sketch.</desc>
    <g id="SwagLabs-logo" stroke="none" stroke-width="1" fill="none" fill-rule="evenodd">
        <g fill="#E02726">
            <path d="M171.231483,19.4929645 C171.231483,19.4929645 173.036773,21.3814122 175.781898,21.3814122 C177.686361,21.3814122 179.244296,20.2533748 179.244296,18.3895118 C179.244296,14.0488835 170.563797,15.1523362 170.563797,9.8060223 C170.563797,7.32925706 172.764625,5.17152114 175.979667,5.17152114 C178.996941,5.17152114 180.629255,6.8387066 180.629255,6.8387066 L179.788593,8.26118858 C179.788593,8.26118858 178.254875,6.79010895 175.979667,6.79010895 C173.754046,6.79010895 172.319501,8.23660388 172.319501,9.75742464 C172.319501,13.8527777 181,12.6755709 181,18.3403424 C181,20.9154464 178.996941,23 175.732312,23 C172.171318,23 170.217269,20.7925229 170.217269,20.7925229 L171.231483,19.4929645 Z M160.573294,21.1847346 C162.675526,21.1847346 163.986106,19.8851761 163.986106,17.8252073 C163.986106,15.7652384 162.57693,14.4165105 160.548501,14.4165105 L156.122052,14.4165105 L156.122052,21.1847346 L160.573294,21.1847346 Z M160.350732,12.9454309 C162.107013,12.9454309 163.293626,11.7190547 163.293626,9.92894578 C163.293626,8.16342153 162.180816,6.98621478 160.325939,6.98621478 L156.122052,6.98621478 L156.122052,12.9454309 L160.350732,12.9454309 Z M154.415358,5.46596576 L160.350732,5.46596576 C163.095857,5.46596576 165.049907,7.10856653 165.049907,9.8060223 C165.049907,11.596703 164.184451,12.8962615 162.848502,13.5583331 L162.848502,13.6075025 C164.629576,14.0980529 165.767179,15.7898231 165.767179,17.8743766 C165.767179,20.9400311 163.467179,22.7055554 160.548501,22.7055554 L154.415358,22.7055554 L154.415358,5.46596576 Z M142.149648,7.25607471 C142.149648,7.25607471 141.778903,8.67798494 141.481962,9.48756472 L139.157168,15.7412254 L145.142128,15.7412254 L142.866921,9.48756472 C142.570556,8.67798494 142.199234,7.25607471 142.199234,7.25607471 L142.149648,7.25607471 Z M145.661632,17.2123051 L138.662457,17.2123051 L136.684191,22.7055554 L134.878901,22.7055554 L141.2594,5.46596576 L143.089483,5.46596576 L149.470558,22.7055554 L147.664691,22.7055554 L145.661632,17.2123051 Z M121.302611,5.46596576 L123.009305,5.46596576 L123.009305,21.1847346 L131.071705,21.1847346 L131.071705,22.7055554 L121.302611,22.7055554 L121.302611,5.46596576 Z M107.108222,5 C111.411282,5 113.63748,7.20690531 113.63748,7.20690531 L112.054752,9.56131881 C112.054752,9.56131881 110.175082,7.8935616 107.38037,7.8935616 C103.448055,7.8935616 101.345823,10.5910174 101.345823,13.8767906 C101.345823,17.6536861 103.942766,20.1058667 107.232188,20.1058667 C109.87814,20.1058667 111.633844,18.291173 111.633844,18.291173 L111.633844,16.2557888 L108.938305,16.2557888 L108.938305,13.5337484 L114.502935,13.5337484 L114.502935,22.7055554 L111.782603,22.7055554 L111.782603,21.8719626 C111.782603,21.5037639 111.807396,21.136137 111.807396,21.136137 L111.75781,21.136137 C111.75781,21.136137 109.927727,23 106.663098,23 C102.038303,23 98.0569779,19.4437951 98.0569779,13.9751294 C98.0569779,8.92326017 101.89012,5 107.108222,5 Z M86.3851513,8.31035797 C86.3851513,8.31035797 85.9890369,10.0272846 85.6430854,11.0078137 L84.0851505,15.6674713 L88.6851521,15.6674713 L87.1266407,11.0078137 C86.8054824,10.0272846 86.4341611,8.31035797 86.4341611,8.31035797 L86.3851513,8.31035797 Z M89.4762278,18.2420036 L83.3182914,18.2420036 L81.8341595,22.7055554 L78.545314,22.7055554 L84.7280437,5.29387288 L88.0664755,5.29387288 L94.2492052,22.7055554 L90.9603597,22.7055554 L89.4762278,18.2420036 Z M68.7035708,17.3346568 C68.9757193,18.3403424 69.0005125,19.1739351 69.0253057,19.1739351 L69.0748921,19.1739351 C69.0748921,19.1739351 69.1492717,18.3157577 69.3718338,17.3346568 L72.2651414,5.29387288 L75.5545634,5.29387288 L71.0283648,22.7055554 L67.3439815,22.7055554 L64.6478662,12.405711 C64.3515011,11.2776737 64.202742,10.1250516 64.202742,10.1250516 L64.1531556,10.1250516 C64.1531556,10.1250516 64.0049731,11.2776737 63.7080314,12.405711 L61.0124927,22.7055554 L57.3275328,22.7055554 L52.9253001,5.29387288 L56.2147222,5.29387288 L58.9846404,17.3346568 C59.2072025,18.3157577 59.2815821,19.1739351 59.2815821,19.1739351 L59.3305919,19.1739351 C59.3553851,19.1739351 59.3801783,18.3403424 59.6523268,17.3346568 L62.8177829,5.29387288 L65.5877011,5.29387288 L68.7035708,17.3346568 Z M38.7309106,18.2420036 C38.7309106,18.2420036 40.6353735,20.081282 43.1083501,20.081282 C44.4437228,20.081282 45.6557062,19.3946257 45.6557062,17.9727154 C45.6557062,14.8578916 37.3707447,15.3976114 37.3707447,10.0512975 C37.3707447,7.15773592 39.8933076,5 43.2571092,5 C46.719507,5 48.500004,6.8632913 48.500004,6.8632913 L47.1150449,9.43839532 C47.1150449,9.43839532 45.4331441,7.9181463 43.232316,7.9181463 C41.7481842,7.9181463 40.5857872,8.77632373 40.5857872,10.0026999 C40.5857872,13.0923673 48.8459555,12.3319569 48.8459555,17.8989613 C48.8459555,20.6701712 46.719507,23 43.0587637,23 C39.1518182,23 37,20.6210018 37,20.6210018 L38.7309106,18.2420036 Z" id="Fill-1"></path>
            <path d="M21.2754071,1.75 L17.0801786,9.72798858 L24.5675766,9.72798858 C24.5675766,9.72798858 25.3259864,11.5028896 25.3259864,13.8338322 C25.3259864,20.1586043 20.2233034,25.304004 13.9514388,25.304004 C13.3936201,25.304004 12.8373997,25.2629052 12.2883718,25.1819166 L13.5586481,23.8881125 C13.689312,23.8929476 13.8203754,23.896574 13.9514388,23.896574 C19.4537054,23.896574 23.9314395,19.3825635 23.9314395,13.8338322 C23.9314395,13.8338322 23.9302408,12.3703951 23.5566301,11.0967374 L14.8237299,11.0967374 L18.4707297,4.16031958 L9.50886807,13.1496592 L21.5435278,13.1496592 L8.16666667,26.7428624 C9.93162755,27.5503316 11.8903865,28 13.9514388,28 C21.697767,28 28,21.6454112 28,13.8338322 C28,8.72711365 25.3056076,4.24291997 21.2754071,1.75 Z M10.9192018,18.2721339 L6.72445738,26.25 C2.69433811,23.7571183 0,19.2733964 0,14.1659504 C0,6.35489417 6.302106,0 14.0486777,0 C16.1096885,0 18.0680084,0.450064468 19.8333333,1.25752122 L6.3528521,14.8505157 L18.3549037,14.8505157 L9.52907836,23.8397174 L13.1760046,16.903406 L4.44328041,16.903406 C4.04410441,15.540722 4.07007683,14.1659504 4.07007683,14.1659504 C4.07007683,8.6177071 8.54612244,4.10376598 14.0486777,4.10376598 C14.1661529,4.10376598 14.2816303,4.10658644 14.3991055,4.11061567 L15.6833414,2.81320511 C15.1463118,2.73544107 14.6168742,2.69635758 14.0714535,2.69635758 C7.79971526,2.69635758 2.67995339,7.84167831 2.67995339,14.1659504 C2.67995339,14.1659504 2.61122639,16.196277 3.4291576,18.2689105 L10.9192018,18.2721339 Z" id="Fill-3"></path>
        </g>
    </g>
</svg>