<svg width="32" height="32" viewBox="0 0 16 16" fill="none" xmlns="http://www.w3.org/2000/svg">
    <path fill-rule="evenodd" clip-rule="evenodd"
        d="M0.666626 2.83333C0.666626 2.3731 1.00863 2 1.43051 2H14.5694C14.9913 2 15.3333 2.3731 15.3333 2.83333C15.3333 3.29357 14.9913 3.66667 14.5694 3.66667H1.43051C1.00863 3.66667 0.666626 3.29357 0.666626 2.83333ZM0.666626 7.5C0.666626 7.03976 1.00863 6.66667 1.43051 6.66667H14.5694C14.9913 6.66667 15.3333 7.03976 15.3333 7.5C15.3333 7.96024 14.9913 8.33333 14.5694 8.33333H1.43051C1.00863 8.33333 0.666626 7.96024 0.666626 7.5ZM1.43051 11.3333C1.00863 11.3333 0.666626 11.7064 0.666626 12.1667C0.666626 12.6269 1.00863 13 1.43051 13H14.5694C14.9913 13 15.3333 12.6269 15.3333 12.1667C15.3333 11.7064 14.9913 11.3333 14.5694 11.3333H1.43051Z"
        fill="#132322" />
</svg>